<svg width="230" height="54" viewBox="0 0 230 54" fill="none" xmlns="http://www.w3.org/2000/svg">
<path fill-rule="evenodd" clip-rule="evenodd" d="M11.9167 34.5833C16.7031 34.5833 20.5833 30.7031 20.5833 25.9167C20.5833 21.1302 16.7031 17.25 11.9167 17.25C7.1302 17.25 3.25 21.1302 3.25 25.9167C3.25 30.7031 7.1302 34.5833 11.9167 34.5833Z" stroke="#BCBCBC" stroke-linecap="round" stroke-linejoin="round"/>
<path d="M22.7516 36.7501L18.0391 32.0376" stroke="#BCBCBC" stroke-linecap="round" stroke-linejoin="round"/>
<path d="M61.5502 36.0729L61.5501 36.0728L61.5443 36.0788C61.2537 36.3769 60.8537 36.4981 60.404 36.5C58.1785 36.4308 56.0368 35.3343 54.2142 34.151C51.2305 31.9787 48.5231 29.307 46.8293 26.1049C46.153 24.7044 45.4367 23.0557 45.5044 21.661L45.5048 21.6518L45.505 21.6426C45.5108 21.1314 45.6492 20.7232 45.915 20.4799L45.9231 20.4725L45.9309 20.4647L48.7353 17.6617C48.9361 17.4958 49.0682 17.4909 49.1396 17.5055C49.2248 17.5228 49.3548 17.5949 49.4925 17.8013L51.7438 22.0703C51.8782 22.3672 51.8052 22.6877 51.5821 22.9171L50.5454 23.9532L50.518 23.9807L50.495 24.0121C50.3844 24.1637 50.2952 24.3628 50.2929 24.5988L50.2923 24.6648L50.3088 24.7286C50.744 26.4134 52.039 27.9159 53.1262 28.9134C53.2883 29.0622 53.4609 29.2277 53.6412 29.4007C54.0155 29.7598 54.4232 30.151 54.8405 30.4905C55.4695 31.0023 56.1962 31.4653 57.0457 31.6481C57.1662 31.6804 57.3176 31.7073 57.4766 31.7001C57.6413 31.6926 57.862 31.6453 58.0449 31.4752L58.0531 31.4676L58.061 31.4596L59.242 30.2585C59.57 30.0226 59.9319 29.9885 60.1248 30.1005L60.2412 30.1681H60.2605L64.2283 32.5106C64.5613 32.7227 64.5639 33.0729 64.3661 33.2795L61.5502 36.0729Z" stroke="#BCBCBC"/>
<path d="M88.5 35.5V22.5H92.5V35.5H88.5Z" stroke="#BCBCBC"/>
<path d="M95.5 35.5V26.5H99.5V35.5H95.5Z" stroke="#BCBCBC"/>
<path d="M102.5 35.5V18.5H106.5V35.5H102.5Z" stroke="#BCBCBC"/>
<path d="M147.669 36.75V34.5833C147.669 32.1901 145.729 30.25 143.336 30.25H134.669C132.276 30.25 130.336 32.1901 130.336 34.5833V36.75" stroke="#BCBCBC" stroke-linecap="round" stroke-linejoin="round"/>
<path fill-rule="evenodd" clip-rule="evenodd" d="M138.997 25.9167C141.391 25.9167 143.331 23.9766 143.331 21.5833C143.331 19.1901 141.391 17.25 138.997 17.25C136.604 17.25 134.664 19.1901 134.664 21.5833C134.664 23.9766 136.604 25.9167 138.997 25.9167Z" stroke="#BCBCBC" stroke-linecap="round" stroke-linejoin="round"/>
<rect x="178.5" y="2.5" width="49" height="49" rx="24.5" stroke="#F5F5F5"/>
<path fill-rule="evenodd" clip-rule="evenodd" d="M199 37C200.105 37 201 36.1046 201 35C201 33.8954 200.105 33 199 33C197.895 33 197 33.8954 197 35C197 36.1046 197.895 37 199 37Z" stroke="#F5F5F5" stroke-linecap="round" stroke-linejoin="round"/>
<path fill-rule="evenodd" clip-rule="evenodd" d="M209 37C210.105 37 211 36.1046 211 35C211 33.8954 210.105 33 209 33C207.895 33 207 33.8954 207 35C207 36.1046 207.895 37 209 37Z" stroke="#F5F5F5" stroke-linecap="round" stroke-linejoin="round"/>
<path d="M196.245 21.3332H212L210.473 28.6044C210.301 29.4279 209.535 30.0158 208.655 29.9997H199.045C198.127 30.0071 197.347 29.3601 197.227 28.4917L195.845 18.508C195.727 17.6462 194.957 17.0013 194.045 17H192" stroke="#F5F5F5" stroke-linecap="round" stroke-linejoin="round"/>
</svg>
